<?xml version="1.0" standalone="no"?>
<!DOCTYPE svg PUBLIC "-//W3C//DTD SVG 20010904//EN"
 "http://www.w3.org/TR/2001/REC-SVG-20010904/DTD/svg10.dtd">
<svg version="1.0" xmlns="http://www.w3.org/2000/svg"
 width="128.000000pt" height="128.000000pt" viewBox="0 0 128.000000 128.000000"
 preserveAspectRatio="xMidYMid meet">
<metadata>
Created by potrace 1.11, written by Peter Selinger 2001-2013
</metadata>
<g transform="translate(0.000000,128.000000) scale(0.100000,-0.100000)"
fill="#000000" stroke="none">
<path d="M613 1268 c-6 -7 -9 -48 -9 -92 1 -69 4 -80 22 -93 19 -12 24 -12 38
2 20 20 23 164 4 183 -16 16 -43 15 -55 0z"/>
<path d="M398 1233 c-28 -7 -29 -32 -2 -101 31 -80 45 -96 72 -88 32 10 33 30
6 98 -28 70 -51 97 -76 91z"/>
<path d="M843 1218 c-13 -18 -58 -130 -58 -147 0 -22 32 -38 52 -25 23 14 75
143 67 166 -6 21 -47 24 -61 6z"/>
<path d="M187 1093 c-19 -18 -3 -53 47 -102 59 -59 98 -67 104 -22 3 18 -10
37 -49 77 -49 50 -84 66 -102 47z"/>
<path d="M992 1047 c-40 -41 -53 -60 -50 -78 2 -17 10 -25 28 -27 35 -4 133
95 128 129 -2 17 -10 25 -28 27 -19 2 -38 -10 -78 -51z"/>
<path d="M538 971 c-143 -46 -234 -163 -243 -314 -19 -313 368 -485 590 -262
71 70 100 141 100 245 0 77 -3 92 -33 152 -76 155 -251 230 -414 179z"/>
<path d="M63 903 c-17 -6 -17 -49 -1 -60 7 -4 42 -20 78 -34 69 -29 100 -25
100 10 0 25 -13 34 -89 65 -68 27 -68 27 -88 19z"/>
<path d="M1130 883 c-36 -14 -71 -31 -79 -38 -15 -15 -7 -51 14 -59 17 -6 134
40 157 63 16 15 17 18 2 39 -19 27 -15 27 -94 -5z"/>
<path d="M14 666 c-15 -12 -16 -18 -7 -39 11 -24 16 -25 90 -25 43 1 84 3 91
6 16 5 16 47 0 60 -19 16 -151 14 -174 -2z"/>
<path d="M1091 667 c-15 -15 -14 -42 2 -55 15 -12 146 -13 170 0 9 5 17 17 17
28 0 11 -8 23 -17 28 -26 13 -158 13 -172 -1z"/>
<path d="M135 473 c-33 -13 -68 -32 -78 -42 -17 -17 -17 -18 1 -41 l19 -24 69
29 c100 41 112 55 78 89 -19 19 -16 20 -89 -11z"/>
<path d="M1057 489 c-20 -12 -22 -42 -4 -57 25 -21 141 -62 159 -56 12 3 18
15 18 34 0 22 -6 30 -27 38 -16 5 -51 19 -78 30 -36 14 -56 17 -68 11z"/>
<path d="M232 287 c-40 -41 -53 -60 -50 -78 2 -17 10 -25 28 -27 35 -4 133 95
128 129 -2 17 -10 25 -28 27 -19 2 -38 -10 -78 -51z"/>
<path d="M947 333 c-19 -18 -3 -53 47 -102 59 -59 98 -67 104 -22 3 18 -10 37
-49 77 -49 50 -84 66 -102 47z"/>
<path d="M426 215 c-9 -13 -16 -27 -16 -30 0 -3 -9 -26 -20 -51 -24 -53 -19
-84 14 -84 30 0 37 10 69 90 18 46 23 69 16 82 -14 26 -44 22 -63 -7z"/>
<path d="M791 221 c-13 -23 30 -137 61 -164 19 -16 22 -16 39 -1 9 8 16 24 14
34 -4 23 -46 122 -58 138 -14 18 -45 15 -56 -7z"/>
<path d="M623 195 c-19 -13 -22 -24 -21 -88 1 -80 10 -107 36 -107 33 0 42 22
42 101 0 57 -4 82 -16 93 -19 19 -15 19 -41 1z"/>
</g>
</svg>
